<svg width="55" height="12" viewBox="0 0 55 12" fill="none" xmlns="http://www.w3.org/2000/svg">
<path d="M6.093 8.93V11.25H4.701C3.709 11.25 2.93567 11.01 2.381 10.53C1.82633 10.0393 1.549 9.24467 1.549 8.146V4.594H0.461V2.322H1.549V0.146H4.285V2.322H6.077V4.594H4.285V8.178C4.285 8.44467 4.349 8.63667 4.477 8.754C4.605 8.87133 4.81833 8.93 5.117 8.93H6.093ZM7.073 6.77C7.073 5.85267 7.24367 5.04733 7.585 4.354C7.937 3.66067 8.41167 3.12733 9.009 2.754C9.60633 2.38067 10.273 2.194 11.009 2.194C11.6383 2.194 12.1877 2.322 12.657 2.578C13.137 2.834 13.505 3.17 13.761 3.586V2.322H16.497V11.25H13.761V9.986C13.4943 10.402 13.121 10.738 12.641 10.994C12.1717 11.25 11.6223 11.378 10.993 11.378C10.2677 11.378 9.60633 11.1913 9.009 10.818C8.41167 10.434 7.937 9.89533 7.585 9.202C7.24367 8.498 7.073 7.68733 7.073 6.77ZM13.761 6.786C13.761 6.10333 13.569 5.56467 13.185 5.17C12.8117 4.77533 12.353 4.578 11.809 4.578C11.265 4.578 10.801 4.77533 10.417 5.17C10.0437 5.554 9.857 6.08733 9.857 6.77C9.857 7.45267 10.0437 7.99667 10.417 8.402C10.801 8.79667 11.265 8.994 11.809 8.994C12.353 8.994 12.8117 8.79667 13.185 8.402C13.569 8.00733 13.761 7.46867 13.761 6.786ZM21.2124 3.81C21.5324 3.31933 21.9324 2.93533 22.4124 2.658C22.8924 2.37 23.4257 2.226 24.0124 2.226V5.122H23.2604C22.5777 5.122 22.0657 5.27133 21.7244 5.57C21.383 5.858 21.2124 6.37 21.2124 7.106V11.25H18.4764V2.322H21.2124V3.81ZM33.7361 6.642C33.7361 6.898 33.7201 7.16467 33.6881 7.442H27.4961C27.5388 7.99667 27.7148 8.42333 28.0241 8.722C28.3441 9.01 28.7335 9.154 29.1921 9.154C29.8748 9.154 30.3495 8.866 30.6161 8.29H33.5281C33.3788 8.87667 33.1068 9.40467 32.7121 9.874C32.3281 10.3433 31.8428 10.7113 31.2561 10.978C30.6695 11.2447 30.0135 11.378 29.2881 11.378C28.4135 11.378 27.6348 11.1913 26.9521 10.818C26.2695 10.4447 25.7361 9.91133 25.3521 9.218C24.9681 8.52467 24.7761 7.714 24.7761 6.786C24.7761 5.858 24.9628 5.04733 25.3361 4.354C25.7201 3.66067 26.2535 3.12733 26.9361 2.754C27.6188 2.38067 28.4028 2.194 29.2881 2.194C30.1521 2.194 30.9201 2.37533 31.5921 2.738C32.2641 3.10067 32.7868 3.618 33.1601 4.29C33.5441 4.962 33.7361 5.746 33.7361 6.642ZM30.9361 5.922C30.9361 5.45267 30.7761 5.07933 30.4561 4.802C30.1361 4.52467 29.7361 4.386 29.2561 4.386C28.7975 4.386 28.4081 4.51933 28.0881 4.786C27.7788 5.05267 27.5868 5.43133 27.5121 5.922H30.9361ZM34.6355 6.77C34.6355 5.85267 34.8062 5.04733 35.1475 4.354C35.4995 3.66067 35.9742 3.12733 36.5715 2.754C37.1688 2.38067 37.8355 2.194 38.5715 2.194C39.2008 2.194 39.7502 2.322 40.2195 2.578C40.6995 2.834 41.0675 3.17 41.3235 3.586V2.322H44.0595V11.25H41.3235V9.986C41.0568 10.402 40.6835 10.738 40.2035 10.994C39.7342 11.25 39.1848 11.378 38.5555 11.378C37.8302 11.378 37.1688 11.1913 36.5715 10.818C35.9742 10.434 35.4995 9.89533 35.1475 9.202C34.8062 8.498 34.6355 7.68733 34.6355 6.77ZM41.3235 6.786C41.3235 6.10333 41.1315 5.56467 40.7475 5.17C40.3742 4.77533 39.9155 4.578 39.3715 4.578C38.8275 4.578 38.3635 4.77533 37.9795 5.17C37.6062 5.554 37.4195 6.08733 37.4195 6.77C37.4195 7.45267 37.6062 7.99667 37.9795 8.402C38.3635 8.79667 38.8275 8.994 39.3715 8.994C39.9155 8.994 40.3742 8.79667 40.7475 8.402C41.1315 8.00733 41.3235 7.46867 41.3235 6.786ZM54.1509 6.882H51.3669V9.73H48.7749V6.882H45.9909V4.434H48.7749V1.57H51.3669V4.434H54.1509V6.882Z" fill="url(#paint0_linear_10_2)"/>
<defs>
<linearGradient id="paint0_linear_10_2" x1="0.125" y1="-0.249998" x2="55.125" y2="11.25" gradientUnits="userSpaceOnUse">
<stop stop-color="#1453A2"/>
<stop offset="1" stop-color="#60A5FA"/>
</linearGradient>
</defs>
</svg>
